<?xml version="1.0" encoding="UTF-8" standalone="no" ?>
<!DOCTYPE svg PUBLIC "-//W3C//DTD SVG 1.1//EN" "http://www.w3.org/Graphics/SVG/1.1/DTD/svg11.dtd">
<svg xmlns="http://www.w3.org/2000/svg" xmlns:xlink="http://www.w3.org/1999/xlink" version="1.1" width="500" height="500" viewBox="0 0 500 500" xml:space="preserve">
<desc>Created with Fabric.js 4.6.0</desc>
<defs>
</defs>
<g transform="matrix(-0.75 0 0 0.75 250 250)" id="FDMcywwTEWjE0ZKNEZEKn"  >
<g style="" vector-effect="non-scaling-stroke"   >
		<g transform="matrix(33.33 0 0 33.33 0 0)" id="YDlzMRUeTFfUMC-BE6dpt"  >
<path style="stroke: none; stroke-width: 1; stroke-dasharray: none; stroke-linecap: butt; stroke-dashoffset: 0; stroke-linejoin: miter; stroke-miterlimit: 4; fill: none; fill-rule: nonzero; opacity: 1;" vector-effect="non-scaling-stroke"  transform=" translate(-12, -12)" d="M 0 24 L 0 0 L 24 0 L 24 24 z" stroke-linecap="round" />
</g>
		<g transform="matrix(33.33 0 0 33.33 -0.84 -8.08)" id="mf5emlcJzJENFbRnzAbYv"  >
<path style="stroke: none; stroke-width: 1; stroke-dasharray: none; stroke-linecap: butt; stroke-dashoffset: 0; stroke-linejoin: miter; stroke-miterlimit: 4; fill: rgb(0,0,0); fill-rule: nonzero; opacity: 1;" vector-effect="non-scaling-stroke"  transform=" translate(-11.97, -11.76)" d="M 12 2 C 7.080363776169358 1.9814442700143295 2.878027713658673 5.543964310167821 2.091054918903481 10.400283771473587 C 1.3040821241482892 15.256603232779353 4.166277349379826 19.96393962520287 8.839999999999996 21.5 C 9.34 21.58 9.5 21.27 9.5 21 L 9.5 19.31 C 6.73 19.91 6.14 18 6.14 18 C 5.953246156980276 17.37892385758692 5.548396877013406 16.84622743657788 4.999999999999999 16.5 C 4.09 15.88 5.07 15.9 5.07 15.9 C 5.705925492430104 15.982262884563905 6.269419342223628 16.35055951841588 6.6000000000000005 16.9 C 7.178147945356972 17.928005320800814 8.476538058405442 18.29833652142976 9.510000000000002 17.729999999999997 C 9.555560996761418 17.223057376605183 9.778679243252174 16.748488407878813 10.140000000000002 16.389999999999997 C 8 16.17 5.62 15.31 5.62 11.5 C 5.591074988313874 10.501458778697561 5.949394831545982 9.530412003538547 6.62 8.79 C 6.315537472251947 7.929433818523293 6.351308907109997 6.985067938270719 6.719999999999999 6.1499999999999995 C 6.72 6.149999999999999 7.56 5.879999999999999 9.469999999999999 7.149999999999999 C 11.107597325662944 6.709777775786501 12.832402674337049 6.709777775786501 14.469999999999994 7.149999999999997 C 16.38 5.8599999999999985 17.22 6.149999999999999 17.22 6.149999999999999 C 17.588691092890002 6.985067938270718 17.624462527748054 7.929433818523293 17.32 8.79 C 17.99060516845402 9.530412003538547 18.348925011686127 10.501458778697558 18.32 11.499999999999998 C 18.32 15.32 15.98 16.16 13.75 16.41 C 14.235883875161939 16.898397871522196 14.487383287277734 17.572707889513822 14.44 18.26 L 14.44 21 C 14.44 21.27 14.6 21.59 15.11 21.5 C 19.774627933272793 19.96682382255314 22.636049190115983 15.273875023647173 21.862719807962975 10.425025199858213 C 21.089390425809967 5.576175376069253 16.910126823681196 2.006125546978815 12.000000000000002 2 Z" stroke-linecap="round" />
</g>
</g>
</g>
</svg>